<svg width="105" height="42" viewBox="0 0 105 42" fill="none" xmlns="http://www.w3.org/2000/svg">
<path d="M9.192 23.24C7.432 23.24 5.904 22.904 4.608 22.232C3.328 21.544 2.336 20.584 1.632 19.352C0.944 18.104 0.6 16.64 0.6 14.96C0.6 13.28 0.944 11.824 1.632 10.592C2.336 9.344 3.328 8.384 4.608 7.712C5.904 7.024 7.432 6.68 9.192 6.68C10.872 6.68 12.32 6.944 13.536 7.472C14.768 8 15.72 8.752 16.392 9.728C17.064 10.704 17.4 11.88 17.4 13.256V13.616H13.392V13.256C13.392 12.2 13.064 11.416 12.408 10.904C11.768 10.392 10.72 10.136 9.264 10.136C8.096 10.136 7.152 10.296 6.432 10.616C5.728 10.92 5.216 11.424 4.896 12.128C4.576 12.816 4.416 13.76 4.416 14.96C4.416 16.144 4.576 17.088 4.896 17.792C5.216 18.496 5.728 19.008 6.432 19.328C7.152 19.632 8.096 19.784 9.264 19.784C10.72 19.784 11.768 19.528 12.408 19.016C13.064 18.504 13.392 17.72 13.392 16.664V16.304H17.4V16.664C17.4 18.024 17.064 19.2 16.392 20.192C15.72 21.168 14.768 21.92 13.536 22.448C12.32 22.976 10.872 23.24 9.192 23.24ZM22.56 23H18.96V10.976H22.296V14.408L22.56 14.528V23ZM22.56 16.04H21.84V14.168H22.512C22.624 13.512 22.84 12.928 23.16 12.416C23.496 11.888 23.944 11.48 24.504 11.192C25.064 10.888 25.744 10.736 26.544 10.736C27.456 10.736 28.184 10.928 28.728 11.312C29.288 11.68 29.696 12.184 29.952 12.824C30.208 13.448 30.336 14.152 30.336 14.936V16.928H26.736V15.68C26.736 15.008 26.584 14.528 26.28 14.24C25.992 13.936 25.48 13.784 24.744 13.784C23.944 13.784 23.376 13.968 23.04 14.336C22.72 14.704 22.56 15.272 22.56 16.04ZM38.0237 23.24C36.6957 23.24 35.5197 23.016 34.4957 22.568C33.4717 22.12 32.6797 21.432 32.1197 20.504C31.5597 19.576 31.2797 18.408 31.2797 17C31.2797 15.72 31.5597 14.616 32.1197 13.688C32.6797 12.744 33.4557 12.016 34.4477 11.504C35.4557 10.992 36.6237 10.736 37.9517 10.736C39.2637 10.736 40.4077 10.96 41.3837 11.408C42.3757 11.856 43.1437 12.52 43.6877 13.4C44.2317 14.264 44.5037 15.32 44.5037 16.568C44.5037 16.776 44.4957 16.968 44.4797 17.144C44.4637 17.32 44.4397 17.512 44.4077 17.72H33.6077V15.824H41.8637L41.0477 17C41.0477 16.84 41.0477 16.688 41.0477 16.544C41.0477 16.4 41.0477 16.256 41.0477 16.112C41.0477 15.2 40.7997 14.544 40.3037 14.144C39.8077 13.744 38.9997 13.544 37.8797 13.544C36.6637 13.544 35.8157 13.784 35.3357 14.264C34.8557 14.728 34.6157 15.472 34.6157 16.496V17.408C34.6157 18.432 34.8557 19.184 35.3357 19.664C35.8157 20.128 36.6717 20.36 37.9037 20.36C38.9597 20.36 39.7037 20.224 40.1357 19.952C40.5677 19.68 40.7837 19.288 40.7837 18.776V18.536H44.3837V18.8C44.3837 19.664 44.1197 20.432 43.5917 21.104C43.0637 21.776 42.3197 22.304 41.3597 22.688C40.4157 23.056 39.3037 23.24 38.0237 23.24ZM58.1743 23H54.8143V20.144L54.6223 20.096V15.896C54.6223 15.112 54.4223 14.584 54.0223 14.312C53.6383 14.04 52.9663 13.904 52.0063 13.904C51.0943 13.904 50.4383 14.04 50.0383 14.312C49.6383 14.584 49.4383 15.064 49.4383 15.752V15.848H45.8143V15.776C45.8143 14.784 46.0783 13.912 46.6063 13.16C47.1343 12.392 47.8783 11.8 48.8383 11.384C49.8143 10.952 50.9583 10.736 52.2703 10.736C53.6143 10.736 54.7183 10.952 55.5823 11.384C56.4623 11.816 57.1103 12.424 57.5263 13.208C57.9583 13.976 58.1743 14.888 58.1743 15.944V23ZM49.7263 23.24C48.4303 23.24 47.4143 22.952 46.6783 22.376C45.9423 21.8 45.5743 21.016 45.5743 20.024C45.5743 19.416 45.7183 18.896 46.0063 18.464C46.2943 18.032 46.7263 17.688 47.3023 17.432C47.8783 17.16 48.5983 16.976 49.4623 16.88L54.8623 16.328V18.392L50.4463 18.896C50.0143 18.928 49.6943 19.016 49.4863 19.16C49.2943 19.288 49.1983 19.496 49.1983 19.784C49.1983 20.104 49.3263 20.336 49.5823 20.48C49.8383 20.624 50.2303 20.696 50.7583 20.696C51.6223 20.696 52.3343 20.616 52.8943 20.456C53.4543 20.296 53.8783 20.04 54.1663 19.688C54.4703 19.32 54.6223 18.832 54.6223 18.224L54.9583 18.2V20.24H54.6223C54.3503 21.168 53.7983 21.904 52.9663 22.448C52.1503 22.976 51.0703 23.24 49.7263 23.24ZM68.4711 23H65.4951C64.0871 23 62.9831 22.656 62.1831 21.968C61.3831 21.28 60.9831 20.176 60.9831 18.656V8.648H64.5831V18.248C64.5831 18.856 64.7111 19.264 64.9671 19.472C65.2391 19.664 65.6871 19.76 66.3111 19.76H68.4711V23ZM68.4711 13.952H59.0871V10.976H68.4711V13.952ZM73.4194 23H69.8194V10.976H73.4194V23ZM73.4194 9.752H69.8194V6.92H73.4194V9.752ZM84.2558 23H79.8158L74.3438 10.976H78.3518L81.9518 19.496H82.1918L85.8158 10.976H89.7518L84.2558 23ZM97.0862 23.24C95.7582 23.24 94.5822 23.016 93.5582 22.568C92.5342 22.12 91.7422 21.432 91.1822 20.504C90.6222 19.576 90.3422 18.408 90.3422 17C90.3422 15.72 90.6222 14.616 91.1822 13.688C91.7422 12.744 92.5182 12.016 93.5102 11.504C94.5182 10.992 95.6862 10.736 97.0142 10.736C98.3262 10.736 99.4702 10.96 100.446 11.408C101.438 11.856 102.206 12.52 102.75 13.4C103.294 14.264 103.566 15.32 103.566 16.568C103.566 16.776 103.558 16.968 103.542 17.144C103.526 17.32 103.502 17.512 103.47 17.72H92.6702V15.824H100.926L100.11 17C100.11 16.84 100.11 16.688 100.11 16.544C100.11 16.4 100.11 16.256 100.11 16.112C100.11 15.2 99.8622 14.544 99.3662 14.144C98.8702 13.744 98.0622 13.544 96.9422 13.544C95.7262 13.544 94.8782 13.784 94.3982 14.264C93.9182 14.728 93.6782 15.472 93.6782 16.496V17.408C93.6782 18.432 93.9182 19.184 94.3982 19.664C94.8782 20.128 95.7342 20.36 96.9662 20.36C98.0222 20.36 98.7662 20.224 99.1982 19.952C99.6302 19.68 99.8462 19.288 99.8462 18.776V18.536H103.446V18.8C103.446 19.664 103.182 20.432 102.654 21.104C102.126 21.776 101.382 22.304 100.422 22.688C99.4782 23.056 98.3662 23.24 97.0862 23.24Z" fill="#FEEA83"/>
<path d="M4.14 39H0.52V32.3H4.04C4.44667 32.3 4.79667 32.3633 5.09 32.49C5.39 32.6167 5.62 32.8067 5.78 33.06C5.94667 33.3067 6.03 33.6067 6.03 33.96C6.03 34.34 5.92 34.6667 5.7 34.94C5.48 35.2067 5.14 35.3767 4.68 35.45V35.51C5.2 35.5967 5.59 35.7867 5.85 36.08C6.11 36.3667 6.24 36.7233 6.24 37.15C6.24 37.5367 6.15333 37.87 5.98 38.15C5.80667 38.4233 5.56333 38.6333 5.25 38.78C4.93667 38.9267 4.56667 39 4.14 39ZM1.23 35.83V38.35H4.08C4.55333 38.35 4.91 38.2467 5.15 38.04C5.39667 37.8333 5.52 37.5133 5.52 37.08C5.52 36.6467 5.39667 36.33 5.15 36.13C4.90333 35.93 4.54667 35.83 4.08 35.83H1.23ZM1.23 32.95V35.22H3.92C4.38 35.22 4.72667 35.1267 4.96 34.94C5.2 34.7533 5.32 34.47 5.32 34.09C5.32 33.6967 5.21 33.41 4.99 33.23C4.77 33.0433 4.43333 32.95 3.98 32.95H1.23ZM7.74414 40.7H7.12414V40.05H7.87414C8.12081 40.05 8.30414 40.0067 8.42414 39.92C8.55081 39.84 8.66081 39.6967 8.75414 39.49L9.13414 38.69L9.04414 39.1L6.54414 34.06H7.32414L8.77414 37L9.32414 38.21H9.38414L9.91414 36.99L11.2841 34.06H12.0641L9.38414 39.69C9.26414 39.9367 9.12747 40.1333 8.97414 40.28C8.82747 40.4333 8.65414 40.54 8.45414 40.6C8.25414 40.6667 8.01747 40.7 7.74414 40.7ZM15.2944 39H14.5844V32.3H15.2944V39ZM19.4544 36.15H14.8244V35.51H19.4544V36.15ZM19.6044 32.95H14.8244V32.3H19.6044V32.95ZM24.9212 39H24.2812V37.65L24.2312 37.61V35.94C24.2312 35.46 24.1178 35.1167 23.8912 34.91C23.6645 34.7033 23.2778 34.6 22.7312 34.6C22.2045 34.6 21.8012 34.7 21.5212 34.9C21.2478 35.0933 21.1112 35.41 21.1112 35.85V35.89H20.4012V35.85C20.4012 35.4967 20.4945 35.18 20.6812 34.9C20.8678 34.6133 21.1378 34.3867 21.4912 34.22C21.8445 34.0467 22.2745 33.96 22.7812 33.96C23.2812 33.96 23.6878 34.0467 24.0012 34.22C24.3212 34.3933 24.5545 34.6267 24.7012 34.92C24.8478 35.2133 24.9212 35.5433 24.9212 35.91V39ZM21.9212 39.1C21.4345 39.1 21.0412 38.99 20.7412 38.77C20.4412 38.5433 20.2912 38.2333 20.2912 37.84C20.2912 37.5667 20.3578 37.3467 20.4912 37.18C20.6312 37.0067 20.8212 36.8733 21.0612 36.78C21.3012 36.6867 21.5745 36.62 21.8812 36.58L24.3312 36.31V36.78L22.1012 37.03C21.7278 37.0633 21.4512 37.1333 21.2712 37.24C21.0912 37.3467 21.0012 37.53 21.0012 37.79C21.0012 38.0367 21.0878 38.2267 21.2612 38.36C21.4345 38.4867 21.7078 38.55 22.0812 38.55C22.4878 38.55 22.8512 38.49 23.1712 38.37C23.4912 38.2433 23.7478 38.0533 23.9412 37.8C24.1345 37.5467 24.2312 37.2233 24.2312 36.83L24.3712 36.88V37.67H24.2312C24.0845 38.1233 23.8078 38.4767 23.4012 38.73C22.9945 38.9767 22.5012 39.1 21.9212 39.1ZM26.7983 39H26.0883V34.06H26.7283V35.45L26.7983 35.5V39ZM26.7983 36.32H26.5983V35.41H26.7783C26.8249 35.1433 26.9183 34.9 27.0583 34.68C27.2049 34.46 27.3983 34.2867 27.6383 34.16C27.8783 34.0267 28.1716 33.96 28.5183 33.96C28.8983 33.96 29.2083 34.0433 29.4483 34.21C29.6949 34.3767 29.8749 34.5933 29.9883 34.86C30.1016 35.1267 30.1583 35.4133 30.1583 35.72V36.21H29.4483V35.83C29.4483 35.41 29.3549 35.0967 29.1683 34.89C28.9816 34.6833 28.6716 34.58 28.2383 34.58C27.7383 34.58 27.3716 34.73 27.1383 35.03C26.9116 35.33 26.7983 35.76 26.7983 36.32ZM35.8709 39H35.1609V36.22C35.1609 35.6533 35.0275 35.2433 34.7609 34.99C34.4942 34.7367 34.0809 34.61 33.5209 34.61C33.0809 34.61 32.7242 34.6967 32.4509 34.87C32.1842 35.0433 31.9909 35.2867 31.8709 35.6C31.7509 35.9067 31.6909 36.2667 31.6909 36.68L31.4909 36.69L31.5609 35.57H31.7309C31.7909 35.2967 31.9009 35.0367 32.0609 34.79C32.2275 34.5433 32.4542 34.3433 32.7409 34.19C33.0275 34.0367 33.3809 33.96 33.8009 33.96C34.2609 33.96 34.6442 34.0567 34.9509 34.25C35.2575 34.4367 35.4875 34.6933 35.6409 35.02C35.7942 35.3467 35.8709 35.7167 35.8709 36.13V39ZM31.6909 39H30.9809V32.3H31.6909V39ZM41.4153 39H40.7753V37.65L40.7253 37.61V35.94C40.7253 35.46 40.612 35.1167 40.3853 34.91C40.1586 34.7033 39.772 34.6 39.2253 34.6C38.6986 34.6 38.2953 34.7 38.0153 34.9C37.742 35.0933 37.6053 35.41 37.6053 35.85V35.89H36.8953V35.85C36.8953 35.4967 36.9886 35.18 37.1753 34.9C37.362 34.6133 37.632 34.3867 37.9853 34.22C38.3386 34.0467 38.7686 33.96 39.2753 33.96C39.7753 33.96 40.182 34.0467 40.4953 34.22C40.8153 34.3933 41.0486 34.6267 41.1953 34.92C41.342 35.2133 41.4153 35.5433 41.4153 35.91V39ZM38.4153 39.1C37.9286 39.1 37.5353 38.99 37.2353 38.77C36.9353 38.5433 36.7853 38.2333 36.7853 37.84C36.7853 37.5667 36.852 37.3467 36.9853 37.18C37.1253 37.0067 37.3153 36.8733 37.5553 36.78C37.7953 36.6867 38.0686 36.62 38.3753 36.58L40.8253 36.31V36.78L38.5953 37.03C38.222 37.0633 37.9453 37.1333 37.7653 37.24C37.5853 37.3467 37.4953 37.53 37.4953 37.79C37.4953 38.0367 37.582 38.2267 37.7553 38.36C37.9286 38.4867 38.202 38.55 38.5753 38.55C38.982 38.55 39.3453 38.49 39.6653 38.37C39.9853 38.2433 40.242 38.0533 40.4353 37.8C40.6286 37.5467 40.7253 37.2233 40.7253 36.83L40.8653 36.88V37.67H40.7253C40.5786 38.1233 40.302 38.4767 39.8953 38.73C39.4886 38.9767 38.9953 39.1 38.4153 39.1ZM47.4524 39H46.7424V36.22C46.7424 35.7067 46.6124 35.31 46.3524 35.03C46.0991 34.75 45.6891 34.61 45.1224 34.61C44.5158 34.61 44.0591 34.7833 43.7524 35.13C43.4458 35.4767 43.2924 35.97 43.2924 36.61H43.1024L43.0924 35.61H43.2724C43.3324 35.33 43.4491 35.0633 43.6224 34.81C43.7958 34.5567 44.0258 34.3533 44.3124 34.2C44.6058 34.04 44.9591 33.96 45.3724 33.96C45.8391 33.96 46.2258 34.06 46.5324 34.26C46.8391 34.4533 47.0691 34.7133 47.2224 35.04C47.3758 35.3667 47.4524 35.7267 47.4524 36.12V39ZM43.2924 39H42.5824V34.06H43.2224V35.63L43.2924 35.68V39Z" fill="#41D1FE"/>
</svg>
